<?xml version="1.0" standalone="yes"?>
<svg xmlns="http://www.w3.org/2000/svg" width="512" height="512">
<path style="fill:#FFFFFF; stroke:none;" d="M0 0L0 242L1 242C1 212.315 9.99213 182.072 21.5787 155C31.8944 130.897 46.5627 108.862 63.5795 89C158.02 -21.2322 333.699 -27.2949 436 75C455.211 94.2094 472.056 115.622 484.247 140C497.637 166.776 510.748 198.524 511 229L512 229L512 0L0 0z"/>
<path style="fill:#6949FF; stroke:none;" d="M244 1.42438C226.824 3.67953 209.957 4.65588 193 8.89508C151.252 19.3321 112.456 40.7874 81 70.0895C58.1 91.4213 39.6939 117.047 25.7531 145C-32.7239 262.256 12.3734 410.391 124 477.796C173.953 507.96 235.177 518.815 293 511.714C429.063 495.003 524.563 364.705 511.83 231C501.429 121.774 416.523 27.9087 309 6.39969C288.435 2.28577 264.947 -1.32593 244 1.42438z"/>
<path style="fill:#6949FF; stroke:none;" d="M332 12L333 13L332 12M341 15L342 16L341 15M158 20L159 21L158 20M151 23L152 24L151 23z"/>
<path style="fill:#6949FF; stroke:none;" d="M361 23L362 24L361 23z"/>
<path style="fill:#6949FF; stroke:none;" d="M381 33L382 34L381 33M399 44L400 45L399 44z"/>
<path style="fill:#6949FF; stroke:none;" d="M109 47L110 48L109 47M406 49L407 50L406 49z"/>
<path style="fill:#6949FF; stroke:none;" d="M93 59L94 60L93 59z"/>
<path style="fill:#6949FF; stroke:none;" d="M426 65L427 66L426 65M85 66L86 67L85 66z"/>
<path style="fill:#6949FF; stroke:none;" d="M64 87L65 88L64 87z"/>
<path style="fill:#6949FF; stroke:none;" d="M316 102L316 103L321 103L316 102M314 103L311 107L314 103z"/>
<path style="fill:#f9fcfd; stroke:none;" d="M315.059 104.029C309.352 107.122 310.602 114.342 315.189 117.676C342.397 137.45 363.849 155.125 379.247 186C406.888 241.425 398.841 311.784 360.192 360C346.91 376.57 329.016 384.584 314.228 398.529C308.389 404.036 312.883 413.716 321 412.117C339.97 408.381 360.307 386.087 371.916 372C417.102 317.168 423.325 236.743 391.752 174C379.877 150.402 362.484 129.824 341 114.428C335.202 110.273 322.69 99.8927 315.059 104.029z"/>
<path style="fill:#6949FF; stroke:none;" d="M322.667 103.333L323.333 103.667L322.667 103.333M324 104L325 105L324 104M326 105L327 106L326 105M328 106L329 107L328 106z"/>
<path style="fill:#6949FF; stroke:none;" d="M48 107L49 108L48 107z"/>
<path style="fill:#6949FF; stroke:none;" d="M330 107L331 108L330 107M331 108L332 109L331 108M310 109L310 112L311 112L310 109M333 109L334 110L333 109M335 110L336 111L335 110M336 111L337 112L336 111M338 112L339 113L338 112M339 113L340 114L339 113M311 114L312 115L311 114M469 114L470 115L469 114M312 115L313 116L312 115M342 115L343 116L342 115M343 116L344 117L343 116M314 117L315 118L314 117M471 117L472 118L471 117M316 118L317 119L316 118M346 118L347 119L346 118M318 119L319 120L318 119M347 119L348 120L347 119M319 120L320 121L319 120M348 120L349 121L348 120z"/>
<path style="fill:#6949FF; stroke:none;" d="M473 120L474 121L473 120z"/>
<path style="fill:#6949FF; stroke:none;" d="M321 121L322 122L321 121M38 122L39 123L38 122M323 122L324 123L323 122M351 122L352 123L351 122M324 123L325 124L324 123M352 123L353 124L352 123M230 124L230 125L233 125L230 124M326 124L327 125L326 124M353 124L354 125L353 124M227 125L216 137L227 125z"/>
<path style="fill:#f9fcfd; stroke:none;" d="M228 126.029C220.386 129.783 214.704 138.984 208.961 145C192.326 162.426 177.177 183.104 158.985 198.852C145.544 210.488 118.995 193.747 105.144 203.742C98.8779 208.264 100.924 220.312 101.004 227C101.245 247.285 102 267.641 102 288C102 293.831 99.7377 305.859 103.742 310.566C106.862 314.233 113.737 313 118 313C128.083 313 146.949 309.369 155.91 314.179C162.916 317.939 168.883 327.158 174.17 333C186.387 346.502 199.482 359.252 211.424 373C216.093 378.374 226.299 393.733 234.945 389.642C240.194 387.158 239.992 380.927 240 376L240 338C240 284.324 239 230.599 239 177C239 162.506 240.201 147.435 238.941 133C238.457 127.45 233.508 123.312 228 126.029z"/>
<path style="fill:#6949FF; stroke:none;" d="M235 125L236 126L235 125M327 125L328 126L327 125M354 125L355 126L354 125M476 125L477 126L476 125M236 126L237 127L236 126M329 126L330 127L329 126M355 126L356 127L355 126M237 127L238 128L237 127M330 127L331 128L330 127M238 128L239 129L238 128M332 128L333 129L332 128M333 129L334 130L333 129M239 130L239 203L240 203L240 153L239 130M334 130L335 131L334 130z"/>
<path style="fill:#6949FF; stroke:none;" d="M479 130L480 131L479 130z"/>
<path style="fill:#6949FF; stroke:none;" d="M336 131L337 132L336 131z"/>
<path style="fill:#6949FF; stroke:none;" d="M32 132L33 133L32 132z"/>
<path style="fill:#6949FF; stroke:none;" d="M337 132L338 133L337 132M338 133L339 134L338 133M339 134L340 135L339 134M341 135L342 136L341 135M342 136L343 137L342 136M365 136L366 137L365 136M343 137L344 138L343 137M366 137L367 138L366 137M344 138L345 139L344 138M367 138L368 139L367 138M345 139L346 140L345 139M368 139L369 140L368 139M346 140L347 141L346 140M369 140L370 141L369 140M212 141L213 142L212 141M347 141L348 142L347 141M370 141L371 142L370 141M211 142L212 143L211 142M348 142L349 143L348 142M210 143L211 144L210 143M349 143L350 144L349 143M209 144L210 145L209 144M350 144L351 145L350 144M372 144L373 145L372 144M208 145L209 146L208 145M351 145L352 146L351 145M373 145L374 146L373 145M207 146L208 147L207 146M352 146L353 147L352 146M374 146L375 147L374 146M206 147L207 148L206 147M353 147L354 148L353 147M205 148L206 149L205 148M291 148L292 149L291 148z"/>
<path style="fill:#f9fcfd; stroke:none;" d="M292.019 148.758C285.967 150.986 285.885 158.652 290.148 162.61C295.766 167.824 303.956 170.508 310 175.465C324.239 187.14 335.142 202.674 341.308 220C355.024 258.538 346.743 301.839 318.83 331.985C310.474 341.01 299.117 344.853 290.228 352.637C284.257 357.867 287.862 367.475 296 366.743C310.682 365.422 327.726 347.559 336.384 337C368.462 297.882 372.728 240.001 348.269 196C339.099 179.505 326.204 165.042 310 155.204C305.352 152.382 297.77 146.64 292.019 148.758z"/>
<path style="fill:#6949FF; stroke:none;" d="M297 148L298 149L297 148M354 148L355 149L354 148M204 149L205 150L204 149M289 149L290 150L289 149M299 149L300 150L299 149M355 149L356 150L355 149M376 149L377 150L376 149M288 150L289 151L288 150M301 150L302 151L301 150M356 150L357 151L356 150M377 150L378 151L377 150M287 151L288 152L287 151M303 151L304 152L303 151M305 152L306 153L305 152M378 152L379 153L378 152M286 153L286 159L287 159L286 153M307 153L308 154L307 153M358 153L359 154L358 153M379 153L380 154L379 153M200 154L201 155L200 154M219 158L223 155L223 360L216 354L224 362L224 154L219 158M308 154L309 155L308 154M359 154L360 155L359 154M380 154L381 155L380 154M199 155L200 156L199 155z"/>
<path style="fill:#6949FF; stroke:none;" d="M222 155C208.048 169.246 194.55 184.212 181.17 199C175.775 204.962 169.632 214.557 161.985 217.656C149.953 222.533 130.876 219 118 219L118 297C130.112 297 152.124 292.741 163 298.179C169.555 301.456 174.098 308.824 179.039 314C193.094 328.723 206.368 348.283 223 360L223 216L223 175L222 155z"/>
<path style="fill:#6949FF; stroke:none;" d="M310 155L311 156L310 155M360 155L361 156L360 155M198 156L199 157L198 156M312 156L313 157L312 156M381 156L382 157L381 156M197 157L198 158L197 157M313 157L314 158L313 157M382 157L383 158L382 157M196 158L197 159L196 158M362 158L363 159L362 158M195 159L196 160L195 159M316 159L317 160L316 159M363 159L364 160L363 159M383 159L384 160L383 159M194 160L195 161L194 160M287 160L288 161L287 160M317 160L318 161L317 160M193 161L194 162L193 161M288 161L289 162L288 161z"/>
<path style="fill:#6949FF; stroke:none;" d="M494 161L495 162L494 161z"/>
<path style="fill:#6949FF; stroke:none;" d="M192 162L193 163L192 162M215 162L216 163L215 162M289 162L290 163L289 162M320 162L321 163L320 162M365 162L366 163L365 162M385 162L386 163L385 162M191 163L192 164L191 163M214 163L215 164L214 163M290 163L291 164L290 163M321 163L322 164L321 163M366 163L367 164L366 163M213 164L214 165L213 164M292 164L293 165L292 164M322 164L323 165L322 164M386 164L387 165L386 164M212 165L213 166L212 165M294 165L295 166L294 165M323 165L324 166L323 165M367 165L368 166L367 165M387.333 165.667L387.667 166.333L387.333 165.667M211 166L212 167L211 166M296 166L297 167L296 166M368 166L369 167L368 166M210 167L211 168L210 167M298 167L299 168L298 167M326 167L327 168L326 167M388 167L389 168L388 167M187 168L188 169L187 168M209 168L210 169L209 168M300 168L301 169L300 168M327 168L328 169L327 168M369 168L370 169L369 168z"/>
<path style="fill:#6949FF; stroke:none;" d="M15 169L16 170L15 169z"/>
<path style="fill:#6949FF; stroke:none;" d="M186 169L187 170L186 169M208 169L209 170L208 169M301 169L302 170L301 169M328 169L329 170L328 169M370 169L371 170L370 169M389 169L390 170L389 169M185 170L186 171L185 170M207 170L208 171L207 170M303 170L304 171L303 170M329 170L330 171L329 170M184 171L185 172L184 171M304 171L305 172L304 171M330 171L331 172L330 171M371 171L372 172L371 171M390 171L391 172L390 171M14 172L15 173L14 172M183 172L184 173L183 172M306 172L307 173L306 172M331 172L332 173L331 172M182 173L183 174L182 173M307 173L308 174L307 173M372 173L373 174L372 173M391 173L392 174L391 173M181 174L182 175L181 174M373 174L374 175L373 174M180 175L181 176L180 175M203 175L204 176L203 175M310 175L311 176L310 175M392 175L393 176L392 175M179 176L180 177L179 176M202 176L203 177L202 176M311 176L312 177L311 176M334 176L335 177L334 176M374 176L375 177L374 176M201 177L202 178L201 177M312 177L313 178L312 177M335 177L336 178L335 177M393 177L394 178L393 177M200 178L201 179L200 178M313 178L314 179L313 178M336 178L337 179L336 178M375 178L376 179L375 178M199 179L200 180L199 179M314 179L315 180L314 179M337 179L338 180L337 179M394 179L395 180L394 179M198 180L199 181L198 180M376 180L377 181L376 180M11 181L12 182L11 181M175 181L176 182L175 181M197 181L198 182L197 181M316 181L317 182L316 181M338 181L339 182L338 181M395 181L396 182L395 181M174 182L175 183L174 182M196 182L197 183L196 182M339 182L340 183L339 182M377 182L378 183L377 182M173 183L174 184L173 183M195 183L196 184L195 183M340 183L341 184L340 183M396.333 183.667L396.667 184.333L396.333 183.667M172 184L173 185L172 184M378 184L379 185L378 184M171 185L172 186L171 185M320 185L321 186L320 185M170 186L171 187L170 186M321 186L322 187L321 186M342 186L343 187L342 186M379 186L380 187L379 186M397 186L398 187L397 186M169 187L170 188L169 187M322 187L323 188L322 187M168 188L169 189L168 188M191 188L192 189L191 188M323 188L324 189L323 188M343 188L344 189L343 188M380 188L381 189L380 188M398 188L399 189L398 188M167 189L168 190L167 189M190 189L191 190L190 189M324 189L325 190L324 189M344 189L345 190L344 189M189 190L190 191L189 190M381 190L382 191L381 190M188 191L189 192L188 191M325 191L326 192L325 191M345 191L346 192L345 191M399 191L400 192L399 191z"/>
<path style="fill:#6949FF; stroke:none;" d="M504 191L505 192L504 191z"/>
<path style="fill:#6949FF; stroke:none;" d="M187 192L188 193L187 192M326 192L327 193L326 192M346 192L347 193L346 192M382.333 192.667L382.667 193.333L382.333 192.667M186 193L187 194L186 193M327 193L328 194L327 193M400.333 193.667L400.667 194.333L400.333 193.667M163 194L164 195L163 194M185 194L186 195L185 194M267.667 194.333L268.333 194.667L267.667 194.333z"/>
<path style="fill:#f9fcfd; stroke:none;" d="M269.015 194.718C262.028 195.592 260.155 204.064 265.228 208.49C272.667 214.979 281.784 216.969 288.815 225C305.243 243.765 303.04 273.541 287.535 291.985C281.092 299.651 270.762 300.859 264.434 307.419C259.982 312.034 262.67 319.876 269.004 320.731C280.112 322.232 294.212 309.578 300.7 302C321.672 277.505 321.005 238.967 301.331 214C294.945 205.896 280.439 193.288 269.015 194.718z"/>
<path style="fill:#6949FF; stroke:none;" d="M271.667 194.333L272.333 194.667L271.667 194.333M347 194L348 195L347 194M162 195L163 196L162 195M184 195L185 196L184 195M265 195L266 196L265 195M274.667 195.333L275.333 195.667L274.667 195.333M328 195L329 196L328 195M383 195L384 196L383 195M161 196L162 197L161 196M183 196L184 197L183 196M277.667 196.333L278.333 196.667L277.667 196.333M329 196L330 197L329 196M348 196L349 197L348 196M401 196L402 197L401 196M160 197L161 198L160 197M182 197L183 198L182 197M263 197L264 198L263 197M280 197L281 198L280 197M384.333 197.667L384.667 198.333L384.333 197.667M159 198L160 199L159 198M262 198L263 199L262 198M282 198L283 199L282 198M330 198L331 199L330 198M349 198L350 199L349 198M158 199L159 200L158 199M284 199L285 200L284 199M331 199L332 200L331 199M350 199L351 200L350 199M402.333 199.667L402.667 200.333L402.333 199.667z"/>
<path style="fill:#6949FF; stroke:none;" d="M506 199L507 200L506 199z"/>
<path style="fill:#6949FF; stroke:none;" d="M157 200L158 201L157 200M285 200L286 201L285 200M385.333 200.667L385.667 201.333L385.333 200.667M156 201L157 202L156 201M261.333 201.667L261.667 202.333L261.333 201.667M287 201L288 202L287 201M332 201L333 202L332 201M351.333 201.667L351.667 202.333L351.333 201.667M106 202L107 203L106 202M178 202L179 203L178 202M288 202L289 203L288 202M403.333 202.667L403.667 203.333L403.333 202.667M104 203L105 204L104 203M177 203L178 204L177 203M290 203L291 204L290 203M333 203L334 204L333 203M386 203L387 204L386 203M103 204L104 205L103 204M176 204L177 205L176 204M291 204L292 205L291 204M334 204L335 205L334 204M352 204L353 205L352 204M102 205L103 206L102 205M175 205L176 206L175 205M262.333 205.667L262.667 206.333L262.333 205.667M292 205L293 206L292 205M404.333 205.667L404.667 206.333L404.333 205.667M174 206L175 207L174 206M335 206L336 207L335 206M353 206L354 207L353 206M387.333 206.667L387.667 207.333L387.333 206.667M101 207L101 210L102 210L101 207M173 207L174 208L173 207M263 207L264 208L263 207M295 207L296 208L295 207M172 208L173 209L172 208M264 208L265 209L264 208M296 208L297 209L296 208M336 208L337 209L336 208M354 208L355 209L354 208M171 209L172 210L171 209M265 209L266 210L265 209M297 209L298 210L297 209M388.333 209.667L388.667 210.333L388.333 209.667M405.333 209.667L405.667 210.333L405.333 209.667M170 210L171 211L170 210M268 210L269 211L268 210M298 210L299 211L298 210M337 210L338 211L337 210M355.333 210.667L355.667 211.333L355.333 210.667M271 211L272 212L271 211M273 212L274 213L273 212M338.333 212.667L338.667 213.333L338.333 212.667M275 213L276 214L275 213M356 213L357 214L356 213M389 213L390 214L389 213M406.333 213.667L406.667 214.333L406.333 213.667M277 214L278 215L277 214M301 214L302 215L301 214M166 215L167 216L166 215M278 215L279 216L278 215M302 215L303 216L302 215M339 215L340 216L339 215M280 216L281 217L280 216M303 216L304 217L303 216M357 216L358 217L357 216M390.333 216.667L390.667 217.333L390.333 216.667M163 217L164 218L163 217M281 217L282 218L281 217M340.333 217.667L340.667 218.333L340.333 217.667M407.333 217.667L407.667 218.333L407.333 217.667M117 218L117 297L118 297L118 219L160 219C148.774 214.29 129.219 218 117 218M282 218L283 219L282 218M304 218L305 219L304 218M305 219L306 220L305 219M358.333 219.667L358.667 220.333L358.333 219.667M341 220L342 221L341 220M391 220L391 223L392 223L391 220M306 221L307 222L306 221M408 221L408 224L409 224L408 221M307.333 222.667L307.667 223.333L307.333 222.667M359.333 222.667L359.667 223.333L359.333 222.667M287 223L288 224L287 223M342 223L343 224L342 223M288 224L289 225L288 224M308 224L309 225L308 224M289 225L290 226L289 225M392 225L392 228L393 228L392 225M290 226L291 227L290 226M309 226L310 227L309 226M343.333 226.667L343.667 227.333L343.333 226.667M360.333 226.667L360.667 227.333L360.333 226.667M409 227L409 230L410 230L409 227M291 228L292 229L291 228M310.333 228.667L310.667 229.333L310.333 228.667M292 229L293 230L292 229M344.333 230.667L344.667 231.333L344.333 230.667M361 230L361 233L362 233L361 230M293 231L294 232L293 231M311 231L312 232L311 231M393 231L393 234L394 234L393 231M101 233L101 308L102 308L102 256L101 233M294 233L295 234L294 233M312.333 233.667L312.667 234.333L312.333 233.667M345.333 234.667L345.667 235.333L345.333 234.667M410 234L410 238L411 238L410 234M295 235L296 236L295 235M362 235L362 238L363 238L362 235M313.333 236.667L313.667 237.333L313.333 236.667M296.333 237.667L296.667 238.333L296.333 237.667M394 238L394 243L395 243L394 238M346 239L346 242L347 242L346 239M297.333 240.667L297.667 241.333L297.333 240.667M314 240L315 241L314 240z"/>
<path style="fill:#6949FF; stroke:none;" d="M0 242L1 243L0 242z"/>
<path style="fill:#6949FF; stroke:none;" d="M363 242L363 247L364 247L363 242M298.333 243.667L298.667 244.333L298.333 243.667M411 243L411 252L412 252L411 243M315 244L315 247L316 247L315 244M347 247L347 255L348 255L347 247M299 248L299 251L300 251L299 248M316 251L316 265L317 265L316 251M395 251L395 265L396 265L395 251M347 260L347 268L348 268L347 260M411 264L411 272L412 272L411 264M299 265L299 268L300 268L299 265M315.333 269.667L315.667 270.333L315.333 269.667M363 269L363 274L364 274L363 269M298.333 270.667L298.667 271.333L298.333 270.667M0 272L1 273L0 272z"/>
<path style="fill:#FFFFFF; stroke:none;" d="M0 273L0 512L219 512L219 511C199.476 510.162 178.981 502.793 161 495.6C96.8356 469.934 45.2074 417.742 18.8611 354C12.1288 337.712 7.01111 320.386 4.08102 303C2.54145 293.865 3.50439 281.351 0 273z"/>
<path style="fill:#6949FF; stroke:none;" d="M346 273L346 276L347 276L346 273M394 273L394 277L395 277L394 273M297 274L298 275L297 274M314.333 274.667L314.667 275.333L314.333 274.667M296 277L297 278L296 277M362 277L362 280L363 280L362 277M313 278L314 279L313 278M410 278L410 282L411 282L410 278M295 279L296 280L295 279M345 279L345 282L346 282L345 279M294 281L295 282L294 281M312 281L313 282L312 281M393 281L393 285L394 285L393 281M293 283L294 284L293 283M311.333 283.667L311.667 284.333L311.333 283.667M361.333 283.667L361.667 284.333L361.333 283.667M344.333 284.667L344.667 285.333L344.333 284.667M292 285L293 286L292 285M409 285L409 288L410 288L409 285M310 286L311 287L310 286z"/>
<path style="fill:#FFFFFF; stroke:none;" d="M511 286C510.847 304.543 504.814 323.573 499 341C476.861 407.353 424.876 463.619 361 491.86C340.48 500.933 316.676 510.026 294 511L294 512L512 512L512 353L512 307L511 286z"/>
<path style="fill:#6949FF; stroke:none;" d="M360.333 287.667L360.667 288.333L360.333 287.667M290 288L291 289L290 288M309 288L310 289L309 288M343 288L344 289L343 288M392.333 288.667L392.667 289.333L392.333 288.667M289 289L290 290L289 289M308 290L309 291L308 290M342.333 291.667L342.667 292.333L342.333 291.667M359.333 291.667L359.667 292.333L359.333 291.667M408 291L408 294L409 294L408 291M287 292L288 293L287 292M307 292L308 293L307 292M286 293L287 294L286 293M391.333 293.667L391.667 294.333L391.333 293.667M285 294L286 295L285 294M341.333 294.667L341.667 295.333L341.333 294.667M284 295L285 296L284 295M305 295L306 296L305 295M358 295L359 296L358 295M283 296L284 297L283 296M407 296L407 299L408 299L407 296M160 297L160 298L163 298L160 297M304 297L305 298L304 297M340 297L341 298L340 297M390.333 297.667L390.667 298.333L390.333 297.667M164 298L165 299L164 298M280 298L281 299L280 298M303 298L304 299L303 298M357.333 298.667L357.667 299.333L357.333 298.667M165 299L166 300L165 299M279 299L280 300L279 299M302 299L303 300L302 299M339.333 299.667L339.667 300.333L339.333 299.667M166 300L167 301L166 300M277 300L278 301L277 300M167 301L168 302L167 301M276 301L277 302L276 301M301 301L302 302L301 301M356 301L357 302L356 301M389.333 301.667L389.667 302.333L389.333 301.667M406.333 301.667L406.667 302.333L406.333 301.667M168 302L169 303L168 302M274 302L275 303L274 302M300 302L301 303L300 302M338 302L339 303L338 302M169 303L170 304L169 303M271.667 303.333L272.333 303.667L271.667 303.333M299 303L300 304L299 303M170 304L171 305L170 304M269 304L270 305L269 304M298 304L299 305L298 304M337 304L338 305L337 304M355 304L356 305L355 304M171 305L172 306L171 305M266 305L267 306L266 305M297 305L298 306L297 305M388 305L389 306L388 305M405.333 305.667L405.667 306.333L405.333 305.667M172 306L173 307L172 306M296 306L297 307L296 306M336 306L337 307L336 306M354 306L355 307L354 306M173 307L174 308L173 307M263 307L264 308L263 307M295 307L296 308L295 307M174 308L175 309L174 308M294 308L295 309L294 308M335 308L336 309L335 308M387.333 308.667L387.667 309.333L387.333 308.667M404.333 308.667L404.667 309.333L404.333 308.667M102 309L103 310L102 309M262 309L263 310L262 309M293 309L294 310L293 309M353 309L354 310L353 309M5 310L6 311L5 310M334 310L335 311L334 310M290 311L291 312L290 311M352 311L353 312L352 311M386.333 311.667L386.667 312.333L386.333 311.667M105 312L106 313L105 312M289 312L290 313L289 312M333 312L334 313L333 312M403 312L404 313L403 312M107 313L107 314L156 314C143.348 308.691 120.788 313 107 313M178 313L179 314L178 313M287 313L288 314L287 313M351 313L352 314L351 313M157 314L158 315L157 314M179 314L180 315L179 314M286 314L287 315L286 314M332 314L333 315L332 314M385 314L386 315L385 314M158 315L159 316L158 315M180 315L181 316L180 315M284 315L285 316L284 315M331 315L332 316L331 315M350 315L351 316L350 315M402.333 315.667L402.667 316.333L402.333 315.667M181 316L182 317L181 316M262 316L263 317L262 316M282 316L283 317L282 316M182 317L183 318L182 317M280.667 317.333L281.333 317.667L280.667 317.333M330 317L331 318L330 317M349 317L350 318L349 317M384 317L385 318L384 317M183 318L184 319L183 318M278 318L279 319L278 318M329 318L330 319L329 318M401 318L402 319L401 318z"/>
<path style="fill:#6949FF; stroke:none;" d="M7 319L8 320L7 319z"/>
<path style="fill:#6949FF; stroke:none;" d="M184 319L185 320L184 319M276 319L277 320L276 319M348 319L349 320L348 319M383.333 319.667L383.667 320.333L383.333 319.667M162 320L163 321L162 320M185 320L186 321L185 320M266 320L267 321L266 320M273 320L274 321L273 320M328 320L329 321L328 320M347 320L348 321L347 320M163 321L164 322L163 321M186 321L187 322L186 321M327 321L328 322L327 321M400 321L401 322L400 321M164 322L165 323L164 322M326 322L327 323L326 322M346 322L347 323L346 322M382 322L383 323L382 322M165 323L166 324L165 323M399.333 323.667L399.667 324.333L399.333 323.667M166 324L167 325L166 324M325 324L326 325L325 324M345 324L346 325L345 324M381 324L382 325L381 324M167 325L168 326L167 325M324 325L325 326L324 325M344 325L345 326L344 325M168 326L169 327L168 326M190 326L191 327L190 326M323 326L324 327L323 326M380.333 326.667L380.667 327.333L380.333 326.667M398 326L399 327L398 326M169 327L170 328L169 327M191 327L192 328L191 327M322 327L323 328L322 327M343 327L344 328L343 327z"/>
<path style="fill:#6949FF; stroke:none;" d="M503 327L504 328L503 327z"/>
<path style="fill:#6949FF; stroke:none;" d="M170 328L171 329L170 328M192 328L193 329L192 328M342 328L343 329L342 328M379.333 328.667L379.667 329.333L379.333 328.667M397.333 328.667L397.667 329.333L397.333 328.667M171 329L172 330L171 329M193 329L194 330L193 329M194 330L195 331L194 330M320 330L321 331L320 330M341 330L342 331L341 330M195 331L196 332L195 331M319 331L320 332L319 331M340 331L341 332L340 331M378 331L379 332L378 331M396 331L397 332L396 331M196 332L197 333L196 332M318 332L319 333L318 332M197 333L198 334L197 333M317 333L318 334L317 333M377 333L378 334L377 333M395 333L396 334L395 333M175 334L176 335L175 334M198 334L199 335L198 334M316 334L317 335L316 334M338 334L339 335L338 334M176 335L177 336L176 335M199 335L200 336L199 335M315 335L316 336L315 335M337 335L338 336L337 335M376 335L377 336L376 335M394 335L395 336L394 335M177 336L178 337L177 336M314 336L315 337L314 336M336 336L337 337L336 336M375 336L376 337L375 336M178 337L179 338L178 337M393.333 337.667L393.667 338.333L393.333 337.667M179 338L180 339L179 338M311 338L312 339L311 338M374 338L375 339L374 338M180 339L181 340L180 339M310 339L311 340L310 339M334 339L335 340L334 339M392.333 339.667L392.667 340.333L392.333 339.667M181 340L182 341L181 340M203 340L204 341L203 340M309 340L310 341L309 340M333 340L334 341L333 340M373 340L374 341L373 340M182 341L183 342L182 341M204 341L205 342L204 341M308 341L309 342L308 341M332 341L333 342L332 341M391.333 341.667L391.667 342.333L391.333 341.667M183 342L184 343L183 342M205 342L206 343L205 342M306 342L307 343L306 342M331 342L332 343L331 342M372 342L373 343L372 342M184 343L185 344L184 343M206 343L207 344L206 343M305 343L306 344L305 343M330 343L331 344L330 343M371 343L372 344L371 343M390 343L391 344L390 343M207 344L208 345L207 344M303 344L304 345L303 344M329 344L330 345L329 344M208 345L209 346L208 345M302 345L303 346L302 345M328 345L329 346L328 345M370 345L371 346L370 345M389 345L390 346L389 345M209 346L210 347L209 346M300 346L301 347L300 346M327 346L328 347L327 346M210 347L211 348L210 347M299 347L300 348L299 347M326 347L327 348L326 347M369 347L370 348L369 347M388 347L389 348L388 347M188 348L189 349L188 348M211 348L212 349L211 348M297 348L298 349L297 348M325 348L326 349L325 348M368 348L369 349L368 348M189 349L190 350L189 349M212 349L213 350L212 349M295 349L296 350L295 349M324 349L325 350L324 349M387 349L388 350L387 349M190 350L191 351L190 350M293 350L294 351L293 350M323 350L324 351L323 350M367 350L368 351L367 350M191 351L192 352L191 351M291 351L292 352L291 351M366 351L367 352L366 351M386 351L387 352L386 351M192 352L193 353L192 352M289 352L290 353L289 352M320 352L321 353L320 352M385 352L386 353L385 352M193 353L194 354L193 353M288 353L289 354L288 353M319 353L320 354L319 353M194 354L195 355L194 354M287.333 354.667L287.667 355.333L287.333 354.667M318 354L319 355L318 354M364 354L365 355L364 354M384 354L385 355L384 354M195 355L196 356L195 355M316 355L317 356L316 355M363 355L364 356L363 355M383 355L384 356L383 355M196 356L197 357L196 356M315 356L316 357L315 356M197 357L198 358L197 357M286 357L286 362L287 362L286 357M362 357L363 358L362 357M382 357L383 358L382 357M312 358L313 359L312 358M361 358L362 359L361 358M311 359L312 360L311 359M360 359L361 360L360 359M309 360L310 361L309 360M380 360L381 361L380 360M307 361L308 362L307 361M379 361L380 362L379 361M201 362L202 363L201 362M306 362L307 363L306 362M358 362L359 363L358 362M202 363L203 364L202 363M287 363L288 364L287 363M304 363L305 364L304 363M357 363L358 364L357 363M378 363L379 364L378 363M203 364L204 365L203 364M288 364L289 365L288 364M302 364L303 365L302 364M356 364L357 365L356 364M377 364L378 365L377 364M204 365L205 366L204 365M289 365L290 366L289 365M300 365L301 366L300 365M355 365L356 366L355 365M205 366L206 367L205 366M290.667 366.333L291.333 366.667L290.667 366.333M298 366L299 367L298 366M354 366L355 367L354 366M206 367L207 368L206 367M293 367L293 368L296 368L293 367M353 367L354 368L353 367M375 367L376 368L375 367M207 368L208 369L207 368M374 368L375 369L374 368M208 369L209 370L208 369M209 370L210 371L209 370M210 371L211 372L210 371M372 371L373 372L372 371M371 372L372 373L371 372M370 373L371 374L370 373M369 374L370 375L369 374M484 375L485 376L484 375M214 376L215 377L214 376M215 377L216 378L215 377M343 377L344 378L343 377M216 378L217 379L216 378M342 378L343 379L342 378M366 378L367 379L366 378M217 379L218 380L217 379M341 379L342 380L341 379M365 379L366 380L365 379M218 380L219 381L218 380M340 380L341 381L340 380M364 380L365 381L364 380M219 381L220 382L219 381M339 381L340 382L339 381M363 381L364 382L363 381M220 382L221 383L220 382M337 382L338 383L337 382M362 382L363 383L362 382M221 383L222 384L221 383M336 383L337 384L336 383M361 383L362 384L361 383z"/>
<path style="fill:#6949FF; stroke:none;" d="M33 384L34 385L33 384z"/>
<path style="fill:#6949FF; stroke:none;" d="M222 384L223 385L222 384M239.333 384.667L239.667 385.333L239.333 384.667M335 384L336 385L335 384M360 384L361 385L360 384M359 385L360 386L359 385M332 386L333 387L332 386M358 386L359 387L358 386M238 387L239 388L238 387M331 387L332 388L331 387M357 387L358 388L357 387M237 388L238 389L237 388M329 388L330 389L329 388M356 388L357 389L356 388M227 389L228 390L227 389M236 389L237 390L236 389M328 389L329 390L328 389M355 389L356 390L355 389M229.667 390.333L230.333 390.667L229.667 390.333M233.667 390.333L234.333 390.667L233.667 390.333M326 390L327 391L326 390M325 391L326 392L325 391M352 391L353 392L352 391M475 391L476 392L475 391M323 392L324 393L323 392M351 392L352 393L351 392M322 393L323 394L322 393M350 393L351 394L350 393M320 394L321 395L320 394M349 394L350 395L349 394M318 395L319 396L318 395M316 396L317 397L316 396M346 396L347 397L346 396M41 397L42 398L41 397M315 397L316 398L315 397M345 397L346 398L345 397M313 398L314 399L313 398M344 398L345 399L344 398M312 399L313 400L312 399M342 399L343 400L342 399M341 400L342 401L341 400M311 401L312 402L311 401M340 401L341 402L340 401M338 402L339 403L338 402M45 403L46 404L45 403M337 403L338 404L337 403M335 404L336 405L335 404M334 405L335 406L334 405M332 406L333 407L332 406M465 406L466 407L465 406M311.333 407.667L311.667 408.333L311.333 407.667M330 407L331 408L330 407M329 408L330 409L329 408M312 409L313 410L312 409M327 409L328 410L327 409M313 410L314 411L313 410M325 410L326 411L325 410M314 411L315 412L314 411M323 411L324 412L323 411M316.667 412.333L317.333 412.667L316.667 412.333M320.667 412.333L321.333 412.667L320.667 412.333z"/>
<path style="fill:#6949FF; stroke:none;" d="M53 414L54 415L53 414M456 418L457 419L456 418z"/>
<path style="fill:#6949FF; stroke:none;" d="M57 419L58 420L57 419z"/>
<path style="fill:#6949FF; stroke:none;" d="M451 424L452 425L451 424M62 425L63 426L62 425z"/>
<path style="fill:#6949FF; stroke:none;" d="M440 436L441 437L440 436z"/>
<path style="fill:#6949FF; stroke:none;" d="M73 437L74 438L73 437M75 439L76 440L75 439M76 440L77 441L76 440z"/>
<path style="fill:#6949FF; stroke:none;" d="M435 441L436 442L435 441z"/>
<path style="fill:#6949FF; stroke:none;" d="M88 451L89 452L88 451z"/>
<path style="fill:#6949FF; stroke:none;" d="M99 460L100 461L99 460z"/>
<path style="fill:#6949FF; stroke:none;" d="M107 466L108 467L107 466M385 479L386 480L385 479M136 484L137 485L136 484z"/>
<path style="fill:#6949FF; stroke:none;" d="M376 484L377 485L376 484M138 485L139 486L138 485z"/>
<path style="fill:#6949FF; stroke:none;" d="M146 489L147 490L146 489z"/>
<path style="fill:#6949FF; stroke:none;" d="M364 490L365 491L364 490z"/>
<path style="fill:#6949FF; stroke:none;" d="M355 494L356 495L355 494z"/>
<path style="fill:#6949FF; stroke:none;" d="M350 496L351 497L350 496z"/>
<path style="fill:#6949FF; stroke:none;" d="M342 499L343 500L342 499M173 500L174 501L173 500z"/>
<path style="fill:#6949FF; stroke:none;" d="M339 500L340 501L339 500M336 501L337 502L336 501z"/>
<path style="fill:#6949FF; stroke:none;" d="M333 502L334 503L333 502z"/>
<path style="fill:#6949FF; stroke:none;" d="M186 504L187 505L186 504z"/>
<path style="fill:#6949FF; stroke:none;" d="M202 508L203 509L202 508z"/>
<path style="fill:#6949FF; stroke:none;" d="M310 508L311 509L310 508M305 509L306 510L305 509M219 511L220 512L219 511z"/>
</svg>
